<?xml version="1.0" encoding="UTF-8"?>
<svg xmlns="http://www.w3.org/2000/svg" version="1.1" viewBox="0 0 256 256">
  <!-- Generator: Adobe Illustrator 28.7.9, SVG Export Plug-In . SVG Version: 1.2.0 Build 218)  -->
  <g>
    <g id="Layer_1">
      <g>
        <polygon points="80.9 154.1 4.1 98.3 99 98.3 128.3 8 157.7 98.3 252.6 98.3 175.8 154.1 205.1 244.4 128.3 188.6 51.5 244.4 80.9 154.1"/>
        <path d="M128.3,9.6l28.7,88.5.2.7h93.7l-75.3,54.7-.6.4.2.7,28.7,88.5-75.3-54.7-.6-.4-.6.4-75.3,54.7,28.7-88.5.2-.7-.6-.4L5.6,98.8h93.7l.2-.7,28.7-88.5M128.3,6.4l-29.7,91.4H2.5l77.7,56.5-29.7,91.4,77.7-56.5,77.7,56.5-29.7-91.4,77.7-56.5h-96.1L128.3,6.4h0Z"/>
      </g>
    </g>
  </g>
</svg>